# xmcd
#
# Track frame offsets:
#	150
#	11450
#	26632
#	45511
#	67720
#	89620
#	113821
#	124918
#	140268
#	163068
#	177932
#	196816
#	208496
#	218532
#	228489
#	246494
#
# Disc length: 3555
#
# Revision: 1
# Processed by: cddbd v1.5.1PL0 Copyright (c) Steve Scherf et al.
# Submitted via: EasyCDDAExtractor 4.6.9.1
# Normalized: r0:TDELIM( - )
#
DISCID=df0de110
DTITLE=Various Artist - Very Best of Blues
DYEAR=2001
DGENRE=Blues
TTITLE0=John Lee Hooker - Boom Boom
TTITLE1=Muddy Waters - Hoochie Coochie Man
TTITLE2=Gary Moore - Still Got the Blues (For You)
TTITLE3=Colin James - Just Came Back
TTITLE4=George Thorogood and The Destroyers - Bad To the Bone
TTITLE5=Jonny Winter - You Keep Saing' that You're Leaving'
TTITLE6=Memphis Slim - Cansas City
TTITLE7=Buddy Guy - Some Kind of Wonderful
TTITLE8=Albert Collins - Iceman
TTITLE9=Lightkin' Hopkins - Mojo Hand
TTITLE10=John Mayall - Wakeup Call
TTITLE11=B.B.King - Take a Swing With Me
TTITLE12=John Lee Hooker - Dimples
TTITLE13=Memphis Slim - The Comeback
TTITLE14=Buddy Guy - Trouble Man
TTITLE15=Peter Green - Loser Two Times
EXTD=
EXTT0=
EXTT1=
EXTT2=
EXTT3=
EXTT4=
EXTT5=
EXTT6=
EXTT7=
EXTT8=
EXTT9=
EXTT10=
EXTT11=
EXTT12=
EXTT13=
EXTT14=
EXTT15=
PLAYORDER=
